<svg viewBox="0 0 40 40" fill="none" xmlns="http://www.w3.org/2000/svg">
  <rect x="4" y="9" width="32" height="24" rx="2.5" fill="#ff4747" stroke="#111" stroke-width="1.6"/>
  <rect x="7" y="12" width="10" height="18" rx="1.5" fill="#ffd0d0" stroke="#111" stroke-width="1.2"/>
  <rect x="23" y="12" width="10" height="18" rx="1.5" fill="#fff" stroke="#111" stroke-width="1.2"/>
  <rect x="18.5" y="9" width="3" height="24" fill="#c92f2f" stroke="#111" stroke-width="1"/>
  <path d="M17 16.5 A3 3 0 0 1 23 16.5" fill="none" stroke="#111" stroke-width="1.2" stroke-linecap="round"/>
  <path d="M17 22 A3 3 0 0 1 23 22" fill="none" stroke="#111" stroke-width="1.2" stroke-linecap="round"/>
  <path d="M17 27.5 A3 3 0 0 1 23 27.5" fill="none" stroke="#111" stroke-width="1.2" stroke-linecap="round"/>
  <path d="M17 16.5 A3 3 0 0 1 23 16.5" fill="none" stroke="#fff" stroke-width="0.6" stroke-linecap="round"/>
  <path d="M17 22 A3 3 0 0 1 23 22" fill="none" stroke="#fff" stroke-width="0.6" stroke-linecap="round"/>
  <path d="M17 27.5 A3 3 0 0 1 23 27.5" fill="none" stroke="#fff" stroke-width="0.6" stroke-linecap="round"/>
</svg>
